<?xml version="1.0" encoding="UTF-8" standalone="no"?>
<!-- Created with Inkscape (http://www.inkscape.org/) -->

<svg
   xmlns:dc="http://purl.org/dc/elements/1.1/"
   xmlns:cc="http://creativecommons.org/ns#"
   xmlns:rdf="http://www.w3.org/1999/02/22-rdf-syntax-ns#"
   xmlns:svg="http://www.w3.org/2000/svg"
   xmlns="http://www.w3.org/2000/svg"
   xmlns:sodipodi="http://sodipodi.sourceforge.net/DTD/sodipodi-0.dtd"
   xmlns:inkscape="http://www.inkscape.org/namespaces/inkscape"
   width="32"
   height="32"
   id="svg2"
   version="1.1"
   inkscape:version="0.48.4 r9939"
   sodipodi:docname="fuel-with-bar.svg"
   inkscape:export-filename="C:\Users\Jonathan\Desktop\skill-icons\fuel\png\fuel-with-bar.png"
   inkscape:export-xdpi="89.910583"
   inkscape:export-ydpi="89.910583">
  <defs
     id="defs4" />
  <sodipodi:namedview
     id="base"
     pagecolor="#ffffff"
     bordercolor="#666666"
     borderopacity="1.0"
     inkscape:pageopacity="0.0"
     inkscape:pageshadow="2"
     inkscape:zoom="2.02"
     inkscape:cx="13.578659"
     inkscape:cy="24.005656"
     inkscape:document-units="px"
     inkscape:current-layer="layer1"
     showgrid="false"
     inkscape:window-width="1280"
     inkscape:window-height="961"
     inkscape:window-x="-8"
     inkscape:window-y="-8"
     inkscape:window-maximized="1" />
  <metadata
     id="metadata7">
    <rdf:RDF>
      <cc:Work
         rdf:about="">
        <dc:format>image/svg+xml</dc:format>
        <dc:type
           rdf:resource="http://purl.org/dc/dcmitype/StillImage" />
        <dc:title></dc:title>
      </cc:Work>
    </rdf:RDF>
  </metadata>
  <g
     inkscape:label="Layer 1"
     inkscape:groupmode="layer"
     id="layer1"
     transform="translate(0,-1020.3622)">
    <path
       style="fill:#000000;fill-opacity:1;fill-rule:nonzero;stroke:none"
       d="m 15.759268,1020.3625 c -7.9365566,-0.046 -14.7402789,5.8161 -15.65631869,13.8902 -0.99367066,8.7583 5.31764489,16.8028 14.09774569,17.9679 8.7801,1.1652 16.703864,-4.9899 17.697535,-13.7482 l 0.01717,-0.1681 c 0.894294,-8.7048 -5.402136,-16.6434 -14.116823,-17.7999 -0.685945,-0.091 -1.366719,-0.138 -2.039309,-0.1419 z m 3.710435,1.6027 c 0.432094,0 1.010841,0.1191 1.59482,0.3381 1.030449,0.3864 1.694368,0.9498 1.489897,1.2627 l -0.0038,0.01 c -0.216968,0.3112 -1.233861,0.2492 -2.272045,-0.1401 -1.038184,-0.3892 -1.704957,-0.9571 -1.487989,-1.2683 0.09492,-0.1362 0.343061,-0.2012 0.679133,-0.198 z m -9.8531601,3.6276 c 0.025457,-10e-4 0.049907,-4e-4 0.074399,0 0.7347871,0.013 1.0567331,0.5961 0.7211031,1.3692 l -0.0076,0.017 c -0.369655,0.8316 -1.3555992,1.5609 -2.2033691,1.6307 -0.84777,0.07 -1.2357412,-0.5469 -0.8660862,-1.3785 0.3696551,-0.8316 1.355599,-1.5628 2.2033689,-1.6326 0.026295,-0 0.052758,-0 0.078215,-0.01 z m 8.3861551,1.2272 c 1.260198,0 2.285461,0.8534 2.298753,1.9128 l 0,0.019 c 0,1.0674 -1.029096,1.9334 -2.298753,1.9334 -1.269657,0 -2.298752,-0.866 -2.298752,-1.9334 0,-1.0674 1.029095,-1.9315 2.298752,-1.9315 z m 8.512063,4.6793 c 0.617725,-0.015 1.290951,0.4454 1.694018,1.2328 l 0.01145,0.021 c 0.53377,1.0628 0.373064,2.3046 -0.358643,2.7739 -0.731708,0.4694 -1.757353,-0.011 -2.291122,-1.0741 -0.53377,-1.0628 -0.374972,-2.3045 0.356736,-2.7739 0.181564,-0.1164 0.381656,-0.1743 0.587565,-0.1793 z m -24.6872702,0.3811 c 0.00947,-4e-4 0.019328,4e-4 0.028615,0 0.2949686,0.046 0.3811597,0.9837 0.1945832,2.1015 l -0.00382,0.021 c -0.191122,1.1258 -0.5860725,2.002 -0.8832553,1.9558 -0.29718272,-0.046 -0.38379744,-0.9962 -0.19267551,-2.122 0.18514981,-1.0906 0.56296481,-1.9473 0.85654771,-1.9576 z m 4.5040294,0.8125 c 1.1650099,0 2.1477666,1.06 2.2033688,2.3761 l 0,0.024 c 0.043642,1.326 -0.8731845,2.4022 -2.0469392,2.4022 -1.1737546,0 -2.1597272,-1.0762 -2.2033688,-2.4022 -0.043642,-1.3261 0.8731845,-2.4004 2.0469392,-2.4004 z m 8.0294198,2.9776 c 1.260198,0 2.324453,0.985 2.384598,2.2079 l 0,0.022 c 0.04721,1.2321 -0.94325,2.2322 -2.212907,2.2322 -1.269657,0 -2.337391,-1.0001 -2.384599,-2.2322 -0.04721,-1.2321 0.943251,-2.2303 2.212908,-2.2303 z m 8.584554,3.097 c 1.156733,0 2.010468,0.9749 1.913402,2.1856 l -0.0019,0.022 c -0.110093,1.2198 -1.144784,2.2098 -2.310199,2.2098 -1.165415,0 -2.021587,-0.99 -1.911494,-2.2098 0.110093,-1.2199 1.144784,-2.208 2.310199,-2.208 z m -17.5907053,2.9178 c 0.8745592,0 1.9561282,0.8301 2.4246596,1.8624 l 0.00954,0.02 c 0.4627802,1.0401 0.123775,1.8829 -0.7573485,1.8829 -0.8811235,0 -1.9714177,-0.8428 -2.4341979,-1.8829 -0.4627803,-1.04 -0.1237751,-1.8829 0.7573484,-1.8829 z m 24.0024133,0.1681 c 0.741632,-0.022 0.918208,0.7579 0.396797,1.7466 l -0.0095,0.019 c -0.533236,0.9963 -1.570632,1.8219 -2.31783,1.8436 -0.747198,0.022 -0.920494,-0.7688 -0.387259,-1.7652 0.533236,-0.9963 1.570632,-1.8219 2.31783,-1.8437 z m -11.327796,4.3076 c 1.260198,0 2.089732,0.5884 1.859987,1.3206 l -0.0038,0.015 c -0.244874,0.7377 -1.473585,1.3356 -2.743242,1.3356 -1.269657,0 -2.099138,-0.5979 -1.854263,-1.3356 0.244874,-0.7378 1.471677,-1.3356 2.741334,-1.3356 z m -9.494517,2.4788 c 0.2065647,-0.01 0.5304415,0.049 0.9538394,0.1755 1.1290616,0.3376 2.5402026,1.0455 3.1533926,1.5822 0.608622,0.5327 0.202298,0.6974 -0.91187,0.368 l -0.02099,-0.01 c -1.129062,-0.3376 -2.54211,-1.0454 -3.1553002,-1.5821 -0.3832438,-0.3355 -0.3633514,-0.5241 -0.019077,-0.5361 z"
       id="path3250"
       inkscape:connector-curvature="0" />
    <rect
       style="fill:#ffab16;fill-opacity:1;stroke:#dd9e00;stroke-width:1.23000002;stroke-miterlimit:4;stroke-opacity:1;stroke-dasharray:none"
       id="rect4502"
       width="19.442688"
       height="6.442687"
       x="6.3790002"
       y="1033.1405" />
  </g>
</svg>
