<?xml version="1.0" encoding="UTF-8" standalone="no"?>
<!-- Created with Inkscape (http://www.inkscape.org/) -->

<svg
   xmlns:dc="http://purl.org/dc/elements/1.1/"
   xmlns:cc="http://creativecommons.org/ns#"
   xmlns:rdf="http://www.w3.org/1999/02/22-rdf-syntax-ns#"
   xmlns:svg="http://www.w3.org/2000/svg"
   xmlns="http://www.w3.org/2000/svg"
   xmlns:xlink="http://www.w3.org/1999/xlink"
   xmlns:sodipodi="http://sodipodi.sourceforge.net/DTD/sodipodi-0.dtd"
   xmlns:inkscape="http://www.inkscape.org/namespaces/inkscape"
   id="svg8"
   version="1.1"
   viewBox="0 0 8.4666659 8.4666659"
   height="32"
   width="32"
   inkscape:version="0.92.0 r15299"
   sodipodi:docname="Gear.svg">
  <defs
     id="defs2" />
  <sodipodi:namedview
     units="px"
     inkscape:window-maximized="1"
     inkscape:window-y="-8"
     inkscape:window-x="-8"
     inkscape:window-height="1018"
     inkscape:window-width="1920"
     showgrid="false"
     inkscape:current-layer="layer1"
     inkscape:document-units="mm"
     inkscape:cy="-2.6828836"
     inkscape:cx="8.3115841"
     inkscape:zoom="16"
     inkscape:pageshadow="2"
     inkscape:pageopacity="0.0"
     borderopacity="1.0"
     bordercolor="#666666"
     pagecolor="#ffffff"
     id="base" />
  <metadata
     id="metadata5">
    <rdf:RDF>
      <cc:Work
         rdf:about="">
        <dc:format>image/svg+xml</dc:format>
        <dc:type
           rdf:resource="http://purl.org/dc/dcmitype/StillImage" />
        <dc:title />
      </cc:Work>
    </rdf:RDF>
  </metadata>
  <g
     inkscape:label="Layer 1"
     inkscape:groupmode="layer"
     id="layer1"
     transform="translate(0,-288.53334)">
    <path
       style="fill:#000000;stroke-width:0.05245038"
       d="m 4.2333333,289.93871 a 2.8279611,2.8279611 0 0 0 -2.8279612,2.82796 2.8279611,2.8279611 0 0 0 2.8279612,2.82796 2.8279611,2.8279611 0 0 0 2.8279611,-2.82796 2.8279611,2.8279611 0 0 0 -2.8279611,-2.82796 z m 0,0.97517 a 1.8528022,1.8528022 0 0 1 1.8528022,1.85279 1.8528022,1.8528022 0 0 1 -1.8528022,1.8528 1.8528022,1.8528022 0 0 1 -1.8528022,-1.8528 1.8528022,1.8528022 0 0 1 1.8528022,-1.85279 z"
       id="path3682"
       inkscape:connector-curvature="0" />
    <path
       id="use5239"
       style="fill:#000000;stroke:#000000;stroke-width:0.06574029;stroke-linecap:butt;stroke-linejoin:miter;stroke-opacity:1"
       d="m 5.1276666,290.08592 -0.3759393,-1.37524 m 0,0 c -0.038484,-0.13922 -0.8310591,-0.24053 -1.0254214,0.002 l -0.3759393,1.37524 1.7773,-0.002"
       inkscape:connector-curvature="0"
       sodipodi:nodetypes="cccccc" />
    <use
       x="0"
       y="0"
       xlink:href="#use5239"
       id="use5363"
       transform="rotate(90,4.233331,292.76667)"
       width="100%"
       height="100%" />
    <use
       x="0"
       y="0"
       xlink:href="#use5363"
       id="use5365"
       transform="rotate(90,4.2333544,292.76665)"
       width="100%"
       height="100%" />
    <use
       x="0"
       y="0"
       xlink:href="#use5365"
       id="use5367"
       transform="rotate(90,4.2333313,292.76667)"
       width="100%"
       height="100%" />
    <use
       x="0"
       y="0"
       xlink:href="#use5239"
       id="use5377"
       transform="rotate(45,4.2333528,292.76665)"
       width="100%"
       height="100%" />
    <use
       x="0"
       y="0"
       xlink:href="#use5363"
       id="use5379"
       transform="rotate(45,4.2333528,292.76665)"
       width="100%"
       height="100%" />
    <use
       x="0"
       y="0"
       xlink:href="#use5365"
       id="use5381"
       transform="rotate(45,4.2333528,292.76665)"
       width="100%"
       height="100%" />
    <use
       x="0"
       y="0"
       xlink:href="#use5367"
       id="use5383"
       transform="rotate(45,4.2333528,292.76665)"
       width="100%"
       height="100%" />
    <path
       inkscape:connector-curvature="0"
       id="path5385"
       d="m 4.2333333,289.5783 a 3.1883759,3.1883759 0 0 0 -3.188376,3.18837 3.1883759,3.1883759 0 0 0 3.188376,3.18837 3.1883759,3.1883759 0 0 0 3.1883759,-3.18837 3.1883759,3.1883759 0 0 0 -3.1883759,-3.18837 z m 0,1.09944 a 2.088936,2.088936 0 0 1 2.088936,2.08893 2.088936,2.088936 0 0 1 -2.088936,2.08894 2.088936,2.088936 0 0 1 -2.088936,-2.08894 2.088936,2.088936 0 0 1 2.088936,-2.08893 z"
       style="fill:#000000;stroke-width:0.05913501" />
  </g>
</svg>
