<?xml version="1.0" encoding="UTF-8" standalone="no"?>
<!-- Created with Inkscape (http://www.inkscape.org/) -->

<svg
   xmlns:dc="http://purl.org/dc/elements/1.1/"
   xmlns:cc="http://creativecommons.org/ns#"
   xmlns:rdf="http://www.w3.org/1999/02/22-rdf-syntax-ns#"
   xmlns:svg="http://www.w3.org/2000/svg"
   xmlns="http://www.w3.org/2000/svg"
   xmlns:sodipodi="http://sodipodi.sourceforge.net/DTD/sodipodi-0.dtd"
   xmlns:inkscape="http://www.inkscape.org/namespaces/inkscape"
   width="32"
   height="32"
   id="svg2"
   version="1.1"
   inkscape:version="0.48.4 r9939"
   sodipodi:docname="rope.svg">
  <defs
     id="defs4" />
  <sodipodi:namedview
     id="base"
     pagecolor="#ffffff"
     bordercolor="#666666"
     borderopacity="1.0"
     inkscape:pageopacity="0.0"
     inkscape:pageshadow="2"
     inkscape:zoom="1.01"
     inkscape:cx="28.910995"
     inkscape:cy="-12.370613"
     inkscape:document-units="px"
     inkscape:current-layer="layer1"
     showgrid="false"
     inkscape:window-width="1280"
     inkscape:window-height="961"
     inkscape:window-x="-8"
     inkscape:window-y="-8"
     inkscape:window-maximized="1" />
  <metadata
     id="metadata7">
    <rdf:RDF>
      <cc:Work
         rdf:about="">
        <dc:format>image/svg+xml</dc:format>
        <dc:type
           rdf:resource="http://purl.org/dc/dcmitype/StillImage" />
        <dc:title />
      </cc:Work>
    </rdf:RDF>
  </metadata>
  <g
     inkscape:label="Layer 1"
     inkscape:groupmode="layer"
     id="layer1"
     transform="translate(0,-1020.3622)">
    <path
       style="fill:#000000;fill-opacity:1;fill-rule:nonzero;stroke:none"
       d="m 11,1020.3622 0,10.6875 c 7.18921,-2.5199 9.189179,-7.6594 9.729167,-10.6875 l -9.729167,0 z m 9.916667,0 0,1.5625 c 0,0 0.655453,7.1816 -9.916667,10.875 l 0,7.9375 c 8.664005,-2.9951 9.861112,-9.7834 10,-12.2187 l 0,-0.9063 0,-7.25 -0.08333,0 z M 21,1032.2685 c -0.138884,1.894 -1.336697,7.2258 -10,10.2187 l 0,8.1563 c 8.664005,-2.9951 9.861112,-9.7834 10,-12.2188 l 0,-0.9062 0,-5.25 z m 0,9.875 c -0.138522,1.8891 -1.335681,7.2215 -9.9375,10.2187 l 9.9375,0 0,-10.2187 z"
       id="rect2983"
       inkscape:connector-curvature="0" />
  </g>
</svg>
